<svg xmlns="http://www.w3.org/2000/svg" xmlns:xlink="http://www.w3.org/1999/xlink" version="1.1" x="0px" y="0px" viewBox="0 0 100 125" enable-background="new 0 0 100 100" xml:space="preserve"><g><path d="M94.355,54.688l-6.422-0.105l-5.543-0.092L67.67,54.246l0.152,13.363l0.002,0.186h0.002l26.402-0.361l0.279-6.537   L94.355,54.688z M75.895,56.529l0.426,0.025l0.859,1.248l12.08-0.053l-0.48-1.209l0.35,0.596l-0.246-0.621l0.883,1.506   l-0.117,0.002l0.014,0.021l-0.488,0.006l0.592,0.896l-0.119,0.002l0.016,0.021l-0.477,0.004l0.58,0.898l-0.119,0.002l0.016,0.021   l-0.588,0.006l0.588,0.92l-0.488,0.006l0.592,0.898l-0.119,0.002l0.016,0.021l-2.256,0.02l-2.891,0.025l-8.004,0.07l-0.393-1.658   l0.113,0.012l-0.008-0.035l0.086,0.01l-0.252-0.932l0.271,0.039l-0.25-0.977l0.115,0.021l-0.012-0.045l0.143,0.025l-0.229-0.928   l0.016,0.002l-0.322-0.848l0.115,0.008L75.895,56.529z M71.719,56.568c0.115-0.031,0.232-0.053,0.355-0.053   c0.926,0,1.678,1.002,1.678,2.24c0,1.121-0.619,2.047-1.426,2.209c-0.115,0.033-0.234,0.051-0.355,0.051   c-0.926,0-1.68-1.002-1.68-2.236C70.291,57.656,70.912,56.732,71.719,56.568z M72.578,62.768c0,0.355-0.209,0.646-0.473,0.668   c-0.043,0.018-0.088,0.029-0.135,0.029c-0.279,0-0.506-0.303-0.506-0.674c0-0.355,0.211-0.645,0.473-0.668   c0.045-0.016,0.09-0.027,0.137-0.027C72.352,62.096,72.578,62.396,72.578,62.768z M93.186,66.854   c-0.043,0.016-0.084,0.027-0.131,0.027c0,0-1.068,0.027-2.732,0.066c-1.881,0.043-4.525,0.102-7.24,0.154   c-1.309,0.025-2.635,0.051-3.898,0.07c-4.205,0.07-7.738,0.098-7.758,0c-0.254,0-0.672-0.182-0.676-0.436   c-0.008-0.227,0.406-0.428,0.678-0.473c0.074-0.021,0.145-0.033,0.199-0.035l21.52-0.217c0.252,0.004,0.465,0.074,0.473,0.33   C93.623,66.588,93.428,66.832,93.186,66.854z M92.238,62.791c0-0.371,0.188-0.672,0.412-0.672c0,0,0,0,0.002,0   c0.033-0.014,0.066-0.023,0.102-0.023c0.229,0,0.414,0.301,0.414,0.672s-0.186,0.674-0.414,0.674   c-0.033,0.014-0.068,0.023-0.104,0.023C92.426,63.465,92.238,63.162,92.238,62.791z M92.881,60.982   c-0.076,0.021-0.152,0.033-0.23,0.033c-0.758,0-1.367-1.002-1.367-2.236c0-1.168,0.543-2.123,1.24-2.229   c0.074-0.021,0.152-0.035,0.23-0.035c0.76,0,1.373,1.002,1.373,2.24C94.127,59.92,93.58,60.877,92.881,60.982z"/><polygon points="84.344,60.762 87.312,60.75 89.081,60.742 88.832,60.094 87.442,60.105 84.351,60.131 76.602,60.199    76.887,60.793  "/><polygon points="87.274,61.031 84.339,61.059 76.717,61.125 76.991,61.697 89.071,61.646 88.815,61.02  "/><polygon points="89.071,59.793 88.819,59.166 87.629,59.176 84.361,59.205 76.717,59.273 76.991,59.844  "/><polygon points="89.071,58.867 88.815,58.24 87.198,58.256 84.373,58.283 76.723,58.359 76.991,58.918  "/><path d="M66.482,53.133l0.99,0.834v0.043c0.008,0.006,0.012,0.01,0.018,0.016l14.402,0.26l5.555,0.1l6.754,0.119v-0.037   l-8.617-5.897l-3.996-10.482c0,0,0.053-5.881,0.068-7.646l-1.129-0.238c0.088,0.125,0.145,0.305,0.145,0.508   c0,0.371-0.186,0.672-0.412,0.672c-0.033,0.016-0.068,0.025-0.104,0.025c-0.229,0-0.412-0.301-0.412-0.674   c0-0.299,0.119-0.547,0.283-0.637l-21.025-4.434c0.096,0.139,0.154,0.324,0.154,0.529c0,0.412-0.236,0.746-0.533,0.779   c-0.049,0.018-0.1,0.031-0.152,0.031c-0.32,0-0.58-0.352-0.58-0.787c0-0.318,0.141-0.592,0.342-0.715L57,25.24l-0.037,1.803   l24.406,4.867l-0.061,0.303l-0.096-0.02l-0.008,0.043L56.957,27.4l-0.143,7.004l3.334,13.211   C60.148,47.615,64.455,51.354,66.482,53.133z M71.186,36.089c0.102-0.035,0.223-0.047,0.361-0.025l8.24,1.311   c0.502,0.078,1.053,0.539,1.223,1.018l3.205,9.115c0.15,0.43-0.055,0.771-0.459,0.826c-0.08,0.021-0.164,0.037-0.262,0.031   l-1.631-0.07l-3.408-0.146l-3.375-0.146c-0.508-0.021-1.045-0.438-1.189-0.928L70.795,36.83   C70.676,36.433,70.848,36.142,71.186,36.089z M58.307,33.863c0.072-0.025,0.158-0.035,0.256-0.02l9.533,1.66   c0.332,0.059,0.689,0.371,0.793,0.695l3.451,11.033c0.09,0.293-0.062,0.529-0.342,0.562c-0.059,0.021-0.123,0.033-0.197,0.031   l-10.111-0.344c-0.338-0.012-0.678-0.293-0.758-0.623l-2.938-12.496C57.928,34.087,58.066,33.888,58.307,33.863z"/><path d="M56.088,58.52c0.277-0.064,0.561-0.102,0.848-0.105c3.348-0.045,6.176,4.076,6.717,9.482l3.914-0.055l-0.049-1.801   l-0.318-11.604l-7.584-6.202c-0.037-0.031-3.598-13.73-3.598-13.73c-0.002-0.01-0.031-1.471-0.062-3.244   c-0.02-0.99-0.039-2.072-0.059-3.059c-0.004-0.289-0.01-0.566-0.014-0.834l-13.827,3.09l-0.038,2.953h-0.104v0.023l-0.309-0.002   l0.027-2.08l0.015-1.119l0.104-0.023v-0.002l9.803-2.232l4.32-0.986c-0.014-0.793-0.025-1.432-0.031-1.764l-30.309,6.697   l5.019,0.977l9.645-2.121l0.066,0.303l-0.104,0.023v0.002l-8.84,1.943l1.403,0.273l1.022,0.197l0.008,0.771l0.001,0.045   l-4.154-0.91l-0.72-0.158l-4.916-1.078l-4.775-1.047l-0.023-0.006l-0.108-0.023L5.51,34.541l-0.019,0.258l13.719-3.434h0.005   l0.1-0.025l0.083,0.021l13.976,3.471l0.489,0.123l-0.334,15.639l-0.045-2.696l-0.059,2.719l-0.109-6.405l-6.54,0.938l-7.703,6.625   l12.989-1.08l-0.647,0.068l0.543-0.045l-12.064,1.285l-1.254,0.135l-0.005-0.051l-0.025,0.021v-0.275V51.83l0.023-13.407   l14.526-3.469l-0.001-0.074L18.815,37.91l-1.538-0.354l-2.121-0.486l-0.045,20.418l-0.847,8.588l5.947,0.992   c0.006-0.293,0.021-0.582,0.043-0.867c0.077-0.951,0.25-1.852,0.503-2.67c0.714-2.314,2.064-3.979,3.673-4.35   c0.243-0.066,0.491-0.102,0.745-0.105c2.75-0.037,5.029,3.678,5.091,8.299c0.001,0.115-0.003,0.23-0.005,0.344   c0.456-0.164,0.946-0.246,1.457-0.215c2.999,0.168,6.088,0.42,8.929,0.689l0.09-2.734l0.943-29.02l0.104,0.004l0.001-0.027   l0.31,0.01l-1.035,31.809c3.902,0.375,7.292,0.775,9.27,1.021c0.01-0.939,0.089-1.85,0.23-2.717   C51.244,62.281,53.404,59.057,56.088,58.52z M54.768,33.541l0.033-0.006c0.023-0.006,0.047-0.014,0.07-0.02l0.043-0.006   c0.336-0.053,0.666,0.174,0.736,0.506l3.016,14.482c0.064,0.311-0.127,0.576-0.43,0.617c-0.051,0.018-0.105,0.029-0.164,0.031   l-3.244,0.113c-0.34,0.012-0.617-0.256-0.619-0.598l-0.047-14.404C54.16,33.919,54.434,33.597,54.768,33.541z M51.533,48.003   c-0.049,0.016-0.1,0.027-0.154,0.031l-7.152,0.482c-0.339,0.025-0.613-0.236-0.613-0.574l0.046-10.65   c0.003-0.34,0.277-0.658,0.613-0.711l0.028-0.004c0.025-0.008,0.05-0.016,0.075-0.02l6.872-1.047   c0.334-0.053,0.613,0.184,0.623,0.521l0.217,11.32C52.096,47.675,51.848,47.957,51.533,48.003z M52.885,51.4l-0.012-1.592   l0.105,0.002v-0.025l0.822,0.014l-0.205,8.512l-0.051-2.209l-0.055,2.232l-0.156-6.939L52.885,51.4z"/><polygon points="67.57,67.678 67.572,67.842 67.67,67.84 67.5,61.572 67.551,66.039  "/><path d="M62.641,71.943h31.338V68.17l-30.268,0.504C63.768,69.451,62.641,71.943,62.641,71.943z"/><path d="M25.213,60.268c-2.333,0-4.224,2.85-4.224,6.361c0,3.514,1.891,6.363,4.224,6.363c2.332,0,4.223-2.85,4.223-6.363   C29.436,63.117,27.545,60.268,25.213,60.268z M25.213,71.58c-1.815,0-3.286-2.217-3.286-4.951c0-2.732,1.471-4.949,3.286-4.949   s3.286,2.217,3.286,4.949C28.5,69.363,27.029,71.58,25.213,71.58z"/><path d="M57.191,59.787c-3.012,0-5.451,3.355-5.451,7.494c0,4.137,2.439,7.492,5.451,7.492s5.449-3.355,5.449-7.492   C62.641,63.143,60.203,59.787,57.191,59.787z M57.189,73.111c-2.342,0-4.24-2.611-4.24-5.832s1.898-5.83,4.24-5.83   c2.344,0,4.242,2.609,4.242,5.83S59.533,73.111,57.189,73.111z"/></g></svg>
