<svg xmlns="http://www.w3.org/2000/svg" xmlns:xlink="http://www.w3.org/1999/xlink" version="1.1" x="0px" y="0px" viewBox="0 0 100 125" enable-background="new 0 0 100 100" xml:space="preserve"><g><path d="M27.12,59.871c-4.622,0-8.363,3.744-8.363,8.365c0,4.619,3.741,8.363,8.363,8.363c4.619,0,8.363-3.744,8.363-8.363   C35.483,63.615,31.739,59.871,27.12,59.871z M27.12,72.279c-2.232,0-4.041-1.813-4.041-4.043c0-2.234,1.809-4.041,4.041-4.041   c2.229,0,4.04,1.807,4.04,4.041C31.16,70.467,29.35,72.279,27.12,72.279z"/><path d="M71.917,59.871c-4.62,0-8.363,3.744-8.363,8.365c0,4.619,3.743,8.363,8.363,8.363c4.619,0,8.364-3.744,8.364-8.363   C80.281,63.615,76.536,59.871,71.917,59.871z M71.917,72.279c-2.234,0-4.042-1.813-4.042-4.043c0-2.234,1.808-4.041,4.042-4.041   c2.23,0,4.039,1.807,4.039,4.041C75.956,70.467,74.147,72.279,71.917,72.279z"/><path d="M93.353,65.01h-0.48V28.978H82.338l5.225-7.837h-3.95l-5.225,7.837h-8.448l5.227-7.837h-3.953l-5.227,7.837h-8.448   l5.229-7.837h-3.95l-5.228,7.837H18.773h-1.649c-1.781,0-3.225,1.444-3.225,3.225c0,1.781,1.444,3.227,3.225,3.227h0.909   L16.296,50.56c-5.501,2.385-8.22,8.303-9.185,14.45H6.647c-1.781,0-3.227,1.445-3.227,3.227c0,1.779,1.445,3.227,3.227,3.227h0.246   h7.006h3.039c-0.323-1.02-0.496-2.102-0.496-3.227c0-5.889,4.788-10.68,10.677-10.68c5.888,0,10.677,4.791,10.677,10.68   c0,1.125-0.176,2.207-0.499,3.227h1.338h16.878h6.222c-0.322-1.02-0.499-2.102-0.499-3.227c0-5.889,4.792-10.68,10.68-10.68   s10.679,4.791,10.679,10.68c0,1.125-0.176,2.207-0.501,3.227h7.674h3.104h0.48c1.783,0,3.227-1.447,3.227-3.227   C96.579,66.455,95.136,65.01,93.353,65.01z M37.4,49.336H22.049l0.947-13.907H37.4V49.336z"/></g></svg>