<svg xmlns="http://www.w3.org/2000/svg" xmlns:xlink="http://www.w3.org/1999/xlink" version="1.1" x="0px" y="0px" viewBox="0 0 100.007 125.00875" enable-background="new 0 0 100.007 100.007" xml:space="preserve"><g><path d="M30.785,40.607c0.074-16.225-7.188-24.744-7.498-25.099c-0.137-0.157-0.354-0.212-0.553-0.14   c-0.195,0.073-0.324,0.26-0.324,0.468v47.937l-1.278,16.775c-0.013,0.171,0.063,0.337,0.201,0.439l4.833,3.584   c0.089,0.065,0.193,0.099,0.298,0.099s0.209-0.033,0.298-0.099l4.834-3.584c0.136-0.101,0.211-0.263,0.201-0.432l-1.012-16.771   V40.607z"/><path d="M53.578,15.404c-0.217,0.061-0.365,0.259-0.364,0.483l0.048,10.753l-3.158-10.895c-0.126-0.429-0.847-0.425-0.968,0.004   L46.104,26.59l-0.016-10.754c0-0.224-0.149-0.42-0.365-0.48c-0.217-0.062-0.445,0.03-0.562,0.221   c-1.423,2.333-4.209,9.644-4.209,12.955c0,5.815,2.678,10.754,6.379,12.507c-0.021,0.047-0.041,0.096-0.045,0.15l-3,39.361   c-0.013,0.171,0.063,0.337,0.201,0.439l4.833,3.584c0.089,0.065,0.193,0.099,0.298,0.099s0.209-0.033,0.298-0.099l4.834-3.584   c0.136-0.101,0.211-0.263,0.201-0.432l-2.368-39.252c4.037-1.453,7.035-6.62,7.035-12.773c0-3.872-5.424-12.816-5.479-12.906   C54.024,15.434,53.793,15.343,53.578,15.404z"/><path d="M83.036,28.531c0-7.275-4.187-13.194-9.333-13.194s-9.333,5.919-9.333,13.194c0,5.815,2.678,10.754,6.379,12.506   c-0.021,0.048-0.041,0.096-0.045,0.15l-3,39.361c-0.013,0.171,0.063,0.337,0.201,0.439l4.833,3.584   c0.089,0.065,0.193,0.099,0.298,0.099s0.209-0.033,0.298-0.099l4.834-3.584c0.136-0.101,0.211-0.263,0.201-0.432l-2.368-39.252   C80.038,39.852,83.036,34.685,83.036,28.531z"/></g></svg>
